<svg xmlns="http://www.w3.org/2000/svg" version="1.1" xmlns:xlink="http://www.w3.org/1999/xlink" width="1024" height="1024"><svg xmlns="http://www.w3.org/2000/svg" version="1.1" xmlns:xlink="http://www.w3.org/1999/xlink" width="1024" height="1024"><svg xmlns="http://www.w3.org/2000/svg" xmlns:xlink="http://www.w3.org/1999/xlink" width="1024" height="1024" viewBox="0 0 1024 1024"><defs><linearGradient id="gradient_0" gradientUnits="userSpaceOnUse" x1="721.78357" y1="1523.0956" x2="899.26337" y2="526.02271"><stop offset="0" stop-color="#189E7B"></stop><stop offset="1" stop-color="#4BDF89"></stop></linearGradient></defs><path fill="url(#gradient_0)" transform="scale(0.5 0.5)" d="M981.205 556.518C1002.35 555.26 1030.65 556.935 1052.44 556.294C1062.37 556.001 1099.89 555.957 1107.79 557.416C1113.65 558.556 1119.12 561.174 1123.68 565.022C1130.38 570.756 1133.37 579.499 1133.89 588.132C1134.31 595.166 1131.71 601.99 1128.72 608.292C1100.22 668.405 1071.32 728.501 1042.39 788.382L883.825 1116.67C849.745 1188.02 815.291 1259.19 780.466 1330.18C765.774 1360.55 734.998 1434.78 715.6 1455.55C696.895 1475.58 669.486 1491.22 641.704 1492.23L560.523 1492.25C544.12 1492.26 514.178 1494.93 501.17 1485.24C493.964 1479.95 489.196 1471.97 487.941 1463.11C486.795 1455.23 488.604 1448.84 492.019 1441.84C503.84 1417.62 516.002 1393.43 528.027 1369.31L597.58 1229.92L788.145 847.203L874.025 673.711C886.524 648.701 901.26 614.387 917.867 592.58C929.853 576.841 961.205 558.91 981.205 556.518Z"></path><defs><linearGradient id="gradient_1" gradientUnits="userSpaceOnUse" x1="837.92889" y1="1316.0936" x2="1475.467" y2="809.93225"><stop offset="0" stop-color="#1A9C7A"></stop><stop offset="1" stop-color="#4BDF89"></stop></linearGradient></defs><path fill="url(#gradient_1)" transform="scale(0.5 0.5)" d="M1163.57 652.609C1186.19 700.248 1209.32 747.65 1232.93 794.807C1237.69 804.306 1263.04 857.644 1268.31 861.057L1359.94 781.69C1369.04 773.862 1378.06 765.92 1387.2 758.143C1397.22 749.617 1404.64 742.146 1418.77 743.4C1426.81 744.054 1434.25 747.956 1439.36 754.206C1442.42 757.977 1445.47 763.887 1445.59 768.825C1446.9 818.764 1447.71 870.917 1445.6 920.744C1444.22 953.266 1414.47 982.989 1390.67 1001.49C1378.22 1011.17 1365.01 1024.46 1352.1 1033.26C1340.02 1045.56 1321.11 1060.49 1307.42 1071.93C1275.12 1099.2 1241.95 1125.43 1207.96 1150.57C1201.19 1155.58 1194.08 1162.28 1186.59 1165.71L1186.64 1166.59C1097.34 1231.59 1006.77 1282.8 901.291 1317.06C877.916 1324.65 856.541 1331.86 832.257 1336.06C843.548 1310.94 856.71 1285.26 868.756 1260.32L949.132 1093.37C986.959 1071.42 1025.26 1052.92 1060.93 1026.92C1074.95 1016.71 1090.58 1005.22 1104.94 995.773C1103.34 989.121 1090.93 965.275 1087.41 957.735C1075.44 932.115 1062.39 906.567 1050.83 880.735C1055.53 870.752 1062.16 859.417 1067.27 849.258C1078.91 825.711 1090.43 802.101 1101.82 778.43C1120.96 738.939 1142.73 690.574 1163.57 652.609Z"></path><path fill="#22A67E" transform="scale(0.5 0.5)" d="M1163.57 652.609C1186.19 700.248 1209.32 747.65 1232.93 794.807C1237.69 804.306 1263.04 857.644 1268.31 861.057L1267.88 862.704C1267.4 862.812 1266.92 862.885 1266.45 863.029C1261.6 864.525 1237.68 888.121 1232.29 892.774C1218.2 904.944 1111.82 994.755 1104.94 995.773C1103.34 989.121 1090.93 965.275 1087.41 957.735C1075.44 932.115 1062.39 906.567 1050.83 880.735C1055.53 870.752 1062.16 859.417 1067.27 849.258C1078.91 825.711 1090.43 802.101 1101.82 778.43C1120.96 738.939 1142.73 690.574 1163.57 652.609Z"></path><path fill="#3ED085" transform="scale(0.5 0.5)" d="M1186.64 1166.59L1186.59 1165.71C1194.08 1162.28 1201.19 1155.58 1207.96 1150.57C1241.95 1125.43 1275.12 1099.2 1307.42 1071.93C1321.11 1060.49 1340.02 1045.56 1352.1 1033.26C1359.29 1048.81 1368.07 1064.3 1375.59 1079.98C1416 1162.71 1456.93 1245.17 1498.37 1327.38L1537.11 1404.56C1549.14 1428.57 1578.59 1472.56 1540.56 1487.93C1522.17 1495.36 1475.8 1490.93 1454.59 1491.76C1441.32 1492.29 1415.06 1492.97 1402.67 1491.61C1392.35 1490.48 1382.26 1487.79 1372.74 1483.65C1336.95 1468.41 1322.2 1443.54 1306.64 1409.81C1276.84 1345.18 1242.83 1281.86 1213.13 1217.26C1207.87 1207.28 1192.42 1171.82 1186.64 1166.59Z"></path><path fill="#22A67E" transform="scale(0.5 0.5)" d="M1186.64 1166.59L1186.59 1165.71C1194.08 1162.28 1201.19 1155.58 1207.96 1150.57C1241.95 1125.43 1275.12 1099.2 1307.42 1071.93C1321.11 1060.49 1340.02 1045.56 1352.1 1033.26C1359.29 1048.81 1368.07 1064.3 1375.59 1079.98C1370.67 1087.65 1360.15 1095.68 1352.89 1101.42L1292.64 1151.4C1282.46 1159.99 1253.71 1184.32 1242.33 1190.93C1235.56 1199.12 1218.94 1207.28 1213.13 1217.26C1207.87 1207.28 1192.42 1171.82 1186.64 1166.59Z"></path></svg></svg><style>@media (prefers-color-scheme: light) { :root { filter: none; } }
@media (prefers-color-scheme: dark) { :root { filter: none; } }
</style></svg>